<svg viewBox="0 0 232.258 269.645" xmlns="http://www.w3.org/2000/svg" width="232.258" height="269.645">
  <path d="M0 137.78V110.094c0-.66.65-1.129 1.285-.948 8.184 2.332 41.907 8.932 78.916-17.934C141.112 56.86 185.92 94.078 185.92 94.078c-2.315-.176-24.434-2.7-45.949 4.827-21.516 7.527-37.439 23.446-42.654 27.205C62.14 155.441 19.69 148.987 1.015 139.46.386 139.139 0 138.486 0 137.78Z" fill="#00d2e9"/>
  <path d="M0 68.349V40.715c0-.65.632-1.115 1.258-.937 8.386 2.385 42.391 9.954 72.638-12.408C137.382-25.851 188.987 13.347 199.341 22.382c.67.585.229 1.513-.653 1.392-5.476-.751-18.551-2.012-39.198 3.596-27.937 8.25-41.744 25.74-47.375 29.5C74.334 88.38 33.468 84.71 1.12 70.092.436 69.783 0 69.1 0 68.349Z" fill="#00a1e9" transform="matrix(-1 0 0 -1 232.258 187.105)"/>
  <path d="M.02 197.799V158.33c0-1.214 1.11-2.125 2.301-1.888l22.948 4.56c.901.179 1.55.97 1.55 1.889v21.243c0 1.369.726 2.635 1.908 3.325l83.543 48.822c2.405 1.406 5.381 1.403 7.784-.007l82.944-48.67c1.179-.692 1.903-1.956 1.903-3.322v-17.085c0-1.063-.863-1.925-1.926-1.925h-22.295c-.955 0-1.304-1.206-.475-1.679 17.872-10.199 38.151-7.053 50.672-2.733.764.263 1.268.988 1.268 1.796v35.284c0 2.746-1.462 5.285-3.838 6.663l-108.277 62.8c-2.391 1.386-5.341 1.386-7.731-.001L3.856 204.46C1.482 203.082.02 200.544.02 197.799Z" fill="#0057e4"/>
  <path d="M0 71.905v24.199c0 1.487 1.613 2.413 2.897 1.663l109.37-63.896c2.392-1.398 5.351-1.403 7.748-.013l83.335 48.309c1.188.689 1.92 1.959 1.92 3.332v8.732c0 .875.59 1.64 1.436 1.862l24.344 6.403c.611.161 1.208-.299 1.208-.931V71.905c0-2.744-1.46-5.281-3.833-6.66L120.006 2.248c-2.392-1.39-5.346-1.39-7.738 0L3.833 65.246C1.46 66.624 0 69.161 0 71.905Z" fill="#00d2e9"/>
</svg>
